<svg data-v-095ba1e2="" xmlns="http://www.w3.org/2000/svg" viewBox="0 0 18 18" aria-hidden="true" focusable="false" class="icon amenities__amenity__button__icon"><path d="M13.89 3.69a2.57 2.57 0 00-5.13-.21H7.6l-.4-1.63a.5.5 0 00-.49-.38H4.07v1h2.25l.25 1.01h-.79a.5.5 0 00-.5.5v12.29a.5.5 0 00.5.5h5.38a.5.5 0 00.5-.5V6.23a2.57 2.57 0 002.23-2.55zm-3.23.79v2.13H8.38l-.52-2.13zm-3.85 0l.53 2.13H6.28V4.48zm-.53 11.29V7.6h4.39v8.15zm5.39-10.55V3.98a.5.5 0 00-.5-.5H9.76a1.57 1.57 0 111.9 1.74z"></path></svg>