<svg data-v-095ba1e2="" viewBox="0 0 24 24" xmlns="http://www.w3.org/2000/svg" aria-hidden="true" focusable="false" class="icon amenities__amenity__button__icon"><path fill-rule="evenodd" clip-rule="evenodd" d="M11.81 2.42a.5.5 0 00-.57-.41.52.52 0 00-.39.6c.11 1.12.17 2.23.17 3.35 0 2.61-.89 3.22-1.53 3.37V2.52C9.49 2.23 9.27 2 9 2s-.49.23-.49.52v6.8c-.64-.14-1.53-.75-1.53-3.36 0-1.12.06-2.23.17-3.34a.52.52 0 00-.4-.61.5.5 0 00-.56.41A34.36 34.36 0 006 5.96c0 3.35 1.4 4.23 2.51 4.4v11.12c0 .29.22.52.49.52s.49-.23.49-.52V10.37C10.59 10.19 12 9.3 12 5.96c0-1.18-.06-2.37-.19-3.54zm5.74-.35c.26.05.45.25.45.5v18.91c0 .29-.25.52-.56.52-.31 0-.56-.23-.56-.52v-8.13h-3.16a.55.55 0 01-.56-.48c-.5-5.25.16-8.67 1.97-10.15.61-.54 1.46-.8 2.3-.7l.12.05zM14.24 12.3h2.64V3.04c-.4.06-.75.23-1.03.48-.83.7-2.11 2.77-1.61 8.8z"></path></svg>