<svg data-v-095ba1e2="" xmlns="http://www.w3.org/2000/svg" viewBox="0 0 18 18" aria-hidden="true" focusable="false" class="icon amenities__amenity__button__icon"><path d="M10.3 13.26A1.31 1.31 0 119 11.95a1.31 1.31 0 011.3 1.3zm1.91-1.85a.5.5 0 000-.7 4.36 4.36 0 00-6.44 0 .5.5 0 00.7.7 3.33 3.33 0 015.04 0 .5.5 0 00.7 0zm-7.74-1.9a6.38 6.38 0 014.5-2.06 6.45 6.45 0 014.55 2 .5.5 0 00.7-.7 7.37 7.37 0 00-5.25-2.3 7.36 7.36 0 00-5.22 2.37.5.5 0 00.72.7zM2.3 7.97A9.44 9.44 0 018.97 4.9h.06a9.46 9.46 0 016.66 2.97.5.5 0 10.7-.72A10.29 10.29 0 008.97 3.9a10.41 10.41 0 00-7.38 3.35.5.5 0 10.7.7z"></path></svg>