<svg data-v-095ba1e2="" xmlns="http://www.w3.org/2000/svg" viewBox="0 0 18 18" aria-hidden="true" focusable="false" class="icon amenities__amenity__button__icon"><path d="M15.65 12.27l-1.98-1.14 1.72-.76a.5.5 0 00-.4-.9l-2.38 1.04L10 9l2.62-1.51L15 8.53a.5.5 0 00.2.05.5.5 0 00.2-.95l-1.72-.76 1.97-1.14a.5.5 0 10-.5-.85l-1.97 1.14.2-1.87a.5.5 0 00-.98-.11l-.28 2.59L9.5 8.14V5.12l2.1-1.55a.5.5 0 00-.6-.8L9.5 3.9V1.6a.5.5 0 10-1 0v2.3L7 2.77a.5.5 0 00-.6.8l2.1 1.55v3.02L5.88 6.63 5.6 4.04a.49.49 0 00-.55-.44.5.5 0 00-.44.55L4.82 6 2.85 4.88a.5.5 0 10-.5.85l1.98 1.14-1.72.76a.5.5 0 00.4.9L5.38 7.5 8.01 9l-2.62 1.51L3 9.47a.5.5 0 10-.4.9l1.72.76-1.97 1.14a.5.5 0 00.5.85L4.82 12l-.2 1.86a.5.5 0 00.43.55.52.52 0 00.05 0 .5.5 0 00.5-.44l.28-2.59L8.5 9.86v3.03l-2.1 1.54a.5.5 0 00.6.8l1.5-1.11v2.27a.5.5 0 101 0v-2.27l1.5 1.1a.5.5 0 00.6-.8L9.5 12.9V9.86l2.62 1.51.28 2.6a.5.5 0 00.5.43.51.51 0 00.05 0 .5.5 0 00.44-.55l-.2-1.86 1.96 1.13a.49.49 0 00.25.07.5.5 0 00.25-.92z"></path></svg>